<?xml version="1.0" encoding="utf-8"?>
<!-- Generator: Adobe Illustrator 24.1.3, SVG Export Plug-In . SVG Version: 6.00 Build 0)  -->
<svg version="1.1" id="Layer_1" xmlns="http://www.w3.org/2000/svg" xmlns:xlink="http://www.w3.org/1999/xlink" x="0px" y="0px"
	 viewBox="0 0 512 512" style="enable-background:new 0 0 512 512;" xml:space="preserve">
<style type="text/css">
	.st0{fill:#FFFFFF;}
</style>
<g>
	<path class="st0" d="M254.7,0.3c1,0,2,0,3,0c0.8,1,1.6,2.1,2.5,3c55.6,56,111.2,111.9,166.9,167.9c26.8,26.9,53.7,53.7,80.6,80.5
		c1.3,1.3,2.7,2.4,4.1,3.6c0,0.7,0,1.3,0,2c-1.4,1.2-2.8,2.3-4.1,3.6c-28.2,28.5-56.3,57.1-84.6,85.5
		c-53.9,54-107.9,107.9-161.8,161.8c-1.3,1.3-2.4,2.7-3.6,4.1c-1,0-2,0-3,0c-1.2-1.4-2.3-2.8-3.6-4.1c-27.7-27.7-55.3-55.4-83.1-83
		c-1.3-1.2-3.3-1.7-4.9-2.5c0.3-0.8,0.7-1.6,1-2.4c32.9-32.9,65.8-65.8,98.9-98.9c-87.8,0-175.6,0-263.3,0c0-43.3,0-86.7,0-130
		c87.8,0,175.6,0,263.4,0c0.2-0.5,0.4-1,0.7-1.5c-32.9-32.9-65.9-65.9-99.6-99.6c1.3-1,2.9-1.9,4.2-3.2
		c27.6-27.5,55.2-55.1,82.7-82.7C252.4,3.1,253.5,1.7,254.7,0.3z"/>
</g>
</svg>
